HIERARCHY
ROOT Hips
{
	OFFSET 0.000000 0.000000 0.000000
	CHANNELS 6 Xposition Yposition Zposition Xrotation Yrotation Zrotation
	JOINT Chest
	{
		OFFSET 0.000000 0.009282 11.569106
		CHANNELS 6 Xposition Yposition Zposition Xrotation Yrotation Zrotation
		JOINT Chest2
		{
			OFFSET 0.000000 -0.016863 9.269641
			CHANNELS 6 Xposition Yposition Zposition Xrotation Yrotation Zrotation
			JOINT Chest3
			{
				OFFSET 0.000000 0.000000 8.374491
				CHANNELS 6 Xposition Yposition Zposition Xrotation Yrotation Zrotation
				JOINT Chest4
				{
					OFFSET 0.000000 0.000000 8.374493
					CHANNELS 6 Xposition Yposition Zposition Xrotation Yrotation Zrotation
					JOINT Neck
					{
						OFFSET 0.000000 -0.000001 12.152554
						CHANNELS 6 Xposition Yposition Zposition Xrotation Yrotation Zrotation
						JOINT Head
						{
							OFFSET 0.000000 -0.040100 7.802319
							CHANNELS 6 Xposition Yposition Zposition Xrotation Yrotation Zrotation
							End Site
							{
								OFFSET 0.000000 -0.020946 14.853096
							}
						}
					}
					JOINT RightCollar
					{
						OFFSET -2.894404 0.000000 6.791374
						CHANNELS 6 Xposition Yposition Zposition Xrotation Yrotation Zrotation
						JOINT RightShoulder
						{
							OFFSET -13.574684 0.000000 0.000000
							CHANNELS 6 Xposition Yposition Zposition Xrotation Yrotation Zrotation
							JOINT RightElbow
							{
								OFFSET -23.923903 0.000000 0.000000
								CHANNELS 6 Xposition Yposition Zposition Xrotation Yrotation Zrotation
								JOINT RightWrist
								{
									OFFSET -19.846718 -0.012765 0.000000
									CHANNELS 6 Xposition Yposition Zposition Xrotation Yrotation Zrotation
									End Site
									{
										OFFSET -14.973145 0.000000 0.000000
									}
								}
							}
						}
					}
					JOINT LeftCollar
					{
						OFFSET 2.894404 0.000000 6.791374
						CHANNELS 6 Xposition Yposition Zposition Xrotation Yrotation Zrotation
						JOINT LeftShoulder
						{
							OFFSET 13.574684 0.000000 0.000000
							CHANNELS 6 Xposition Yposition Zposition Xrotation Yrotation Zrotation
							JOINT LeftElbow
							{
								OFFSET 23.923903 0.000000 0.000000
								CHANNELS 6 Xposition Yposition Zposition Xrotation Yrotation Zrotation
								JOINT LeftWrist
								{
									OFFSET 19.846718 -0.012765 0.000000
									CHANNELS 6 Xposition Yposition Zposition Xrotation Yrotation Zrotation
									End Site
									{
										OFFSET 14.973145 0.000000 0.000000
									}
								}
							}
						}
					}
				}
			}
		}
	}
	JOINT RightHip
	{
		OFFSET -9.469263 -0.004642 0.045487
		CHANNELS 6 Xposition Yposition Zposition Xrotation Yrotation Zrotation
		JOINT RightKnee
		{
			OFFSET 0.000000 -0.002666 -40.478676
			CHANNELS 6 Xposition Yposition Zposition Xrotation Yrotation Zrotation
			JOINT RightAnkle
			{
				OFFSET 0.000000 -0.049110 -35.224068
				CHANNELS 6 Xposition Yposition Zposition Xrotation Yrotation Zrotation
				JOINT RightToe
				{
					OFFSET 0.000000 -12.539530 -6.151390
					CHANNELS 6 Xposition Yposition Zposition Xrotation Yrotation Zrotation
					End Site
					{
						OFFSET 0.000000 -5.044995 -1.291870
					}
				}
			}
		}
	}
	JOINT LeftHip
	{
		OFFSET 9.469263 -0.004642 0.045487
		CHANNELS 6 Xposition Yposition Zposition Xrotation Yrotation Zrotation
		JOINT LeftKnee
		{
			OFFSET 0.000000 -0.002666 -40.478676
			CHANNELS 6 Xposition Yposition Zposition Xrotation Yrotation Zrotation
			JOINT LeftAnkle
			{
				OFFSET 0.000000 -0.049110 -35.224068
				CHANNELS 6 Xposition Yposition Zposition Xrotation Yrotation Zrotation
				JOINT LeftToe
				{
					OFFSET 0.000000 -12.539530 -6.151390
					CHANNELS 6 Xposition Yposition Zposition Xrotation Yrotation Zrotation
					End Site
					{
						OFFSET 0.000000 -5.044995 -1.291870
					}
				}
			}
		}
	}
}
MOTION
Frames: 4
Frame Time: 0.016667
-7.700550 -3.221895 83.139580 2.311270 4.173775 -118.461080 -0.000000 0.009281 11.569102 0.061088 5.419601 1.989573 -0.000001 -0.016864 9.269639 0.045722 2.415620 0.962982 -0.000000 -0.000000 8.374487 0.045721 2.415622 0.962979 -0.000001 0.000000 8.374500 0.038094 1.811651 0.722308 0.000003 -0.000001 12.152548 16.445043 -6.579637 -13.824581 0.000002 -0.040098 7.802311 -5.782121 -7.121707 -27.527156 -2.894403 0.000002 6.791368 -7.132760 -7.848032 -3.361539 -13.574685 -0.000002 0.000000 -34.720713 -62.045732 36.288115 -23.923904 -0.000011 -0.000000 -59.910164 -31.082733 20.989530 -19.846712 -0.012765 0.000006 -57.535396 54.792652 48.970356 2.894406 0.000001 6.791368 2.680137 10.245504 -7.686254 13.574684 0.000003 -0.000006 -51.261236 42.736743 23.463817 23.923891 0.000001 0.000002 6.273705 -4.420338 -31.227396 19.846710 -0.012777 -0.000001 -24.580136 -67.571246 -79.866823 -9.469263 -0.004643 0.045489 6.307240 -2.268848 3.231268 -0.000017 -0.002666 -40.478653 0.354805 0.342827 0.378192 -0.000019 -0.049117 -35.224194 -2.790262 -0.146435 0.399129 0.000000 -12.539535 -6.151372 0.143620 0.065277 0.026073 9.469263 -0.004643 0.045489 6.726714 -0.761203 4.300129 -0.000190 -0.002673 -40.478588 2.098120 -0.400962 4.018982 -0.000111 -0.049119 -35.224243 -3.753310 -1.005442 2.391018 -0.000001 -12.539532 -6.151388 -0.089780 -0.072912 -0.041813 
-7.739726 -3.221519 83.138100 2.224053 4.047572 -118.465041 0.000000 0.009283 11.569099 0.003995 5.395996 2.037782 0.000001 -0.016863 9.269642 0.021007 2.406988 0.984107 -0.000000 0.000000 8.374499 0.021007 2.406989 0.984109 -0.000000 0.000001 8.374491 0.019630 1.805212 0.738058 0.000001 -0.000000 12.152548 16.392058 -6.521497 -13.904870 0.000000 -0.040101 7.802303 -5.859022 -6.979714 -27.653453 -2.894403 0.000002 6.791373 -7.224547 -7.856513 -3.293554 -13.574683 -0.000002 0.000008 -34.933563 -61.754022 36.403453 -23.923903 -0.000011 0.000008 -59.957921 -31.349462 21.232446 -19.846722 -0.012774 0.000008 -57.392331 54.762309 48.875864 2.894403 0.000001 6.791374 2.456072 10.224470 -7.469690 13.574683 0.000003 0.000001 -51.197623 42.672109 24.207321 23.923889 0.000000 0.000001 6.156817 -4.324381 -31.018939 19.846722 -0.012771 0.000009 -23.881743 -67.750764 -79.038403 -9.469263 -0.004641 0.045484 6.254629 -2.253985 3.280519 -0.000014 -0.002666 -40.478661 0.206271 0.387019 0.324221 -0.000020 -0.049115 -35.224190 -2.753622 -0.195054 0.412334 -0.000001 -12.539534 -6.151369 0.144422 0.058473 0.027083 9.469264 -0.004642 0.045480 6.656047 -0.728268 4.290960 -0.000187 -0.002673 -40.478573 1.973432 -0.396808 4.025903 -0.000108 -0.049119 -35.224224 -3.702925 -0.992038 2.392566 0.000001 -12.539532 -6.151391 -0.092753 -0.077576 -0.043404 
-7.779725 -3.226971 83.136452 2.134899 3.916676 -118.476379 -0.000000 0.009282 11.569106 -0.055407 5.367735 2.081100 -0.000000 -0.016863 9.269644 -0.004866 2.395339 1.002492 -0.000000 0.000002 8.374496 -0.004867 2.395339 1.002491 -0.000001 0.000002 8.374497 0.000282 1.796519 0.751742 -0.000003 -0.000000 12.152563 16.338699 -6.461533 -13.979894 0.000001 -0.040101 7.802293 -5.936473 -6.836069 -27.769529 -2.894406 0.000002 6.791378 -7.286041 -7.829419 -3.242521 -13.574682 -0.000002 0.000011 -35.305057 -61.585924 36.391050 -23.923904 0.000002 0.000003 -59.869504 -31.618974 21.520519 -19.846729 -0.012776 -0.000004 -57.314064 54.765498 48.855838 2.894400 0.000001 6.791383 2.190073 10.236649 -7.293882 13.574685 0.000003 0.000004 -51.118495 42.524724 24.985296 23.923891 0.000005 -0.000003 6.028228 -4.231192 -30.825446 19.846714 -0.012778 -0.000002 -23.459536 -67.904552 -78.452536 -9.469263 -0.004641 0.045489 6.187366 -2.230001 3.324159 -0.000011 -0.002666 -40.478672 0.073523 0.421236 0.286004 -0.000021 -0.049116 -35.224186 -2.723036 -0.243286 0.420576 -0.000002 -12.539534 -6.151376 0.145380 0.053422 0.028019 9.469263 -0.004642 0.045491 6.577389 -0.691538 4.292774 -0.000188 -0.002674 -40.478596 1.853799 -0.392200 4.024750 -0.000113 -0.049122 -35.224236 -3.653848 -0.986515 2.422739 0.000002 -12.539535 -6.151389 -0.095535 -0.078221 -0.046040 
-7.823079 -3.237604 83.135307 2.052065 3.784275 -118.494985 0.000000 0.009282 11.569114 -0.119611 5.337401 2.124795 0.000000 -0.016864 9.269640 -0.033064 2.381486 1.021159 0.000000 0.000001 8.374490 -0.033064 2.381489 1.021153 0.000000 -0.000001 8.374493 -0.020813 1.786178 0.765630 -0.000002 -0.000002 12.152555 16.287870 -6.398410 -14.050718 -0.000003 -0.040094 7.802321 -6.008792 -6.688628 -27.876568 -2.894403 0.000001 6.791381 -7.332097 -7.800751 -3.203362 -13.574685 -0.000002 0.000011 -35.808496 -61.499481 36.260720 -23.923903 -0.000000 -0.000004 -59.635358 -31.860121 21.832353 -19.846716 -0.012758 0.000013 -57.123392 54.785425 48.759310 2.894403 -0.000000 6.791377 1.965264 10.221684 -7.109015 13.574680 0.000000 0.000010 -51.108868 42.336784 25.813573 23.923910 0.000002 -0.000003 5.993400 -4.150018 -30.664199 19.846718 -0.012769 0.000005 -23.216885 -68.040815 -78.021326 -9.469264 -0.004642 0.045496 6.116883 -2.209376 3.373401 -0.000010 -0.002666 -40.478683 -0.049698 0.459386 0.249000 -0.000021 -0.049118 -35.224201 -2.693505 -0.297835 0.432516 -0.000000 -12.539532 -6.151381 0.143618 0.049300 0.029259 9.469263 -0.004643 0.045501 6.502175 -0.652682 4.306389 -0.000187 -0.002674 -40.478603 1.731200 -0.400071 4.008880 -0.000111 -0.049120 -35.224232 -3.604341 -0.979928 2.423927 -0.000001 -12.539530 -6.151397 -0.097306 -0.076145 -0.048226 
